<svg xmlns="http://www.w3.org/2000/svg" viewBox="0 0 512 512" width="512" height="512">
  <defs>
    <linearGradient id="apexGlow" x1="0%" y1="100%" x2="0%" y2="0%">
      <stop offset="0%" stop-color="#4F46E5" />   <stop offset="40%" stop-color="#0EA5E9" />  <stop offset="80%" stop-color="#7DD3FC" />  <stop offset="100%" stop-color="#B3EFFF" /> </linearGradient>

    <filter id="iconDepth" x="-20%" y="-20%" width="140%" height="140%">
      <feDropShadow dx="0" dy="12" stdDeviation="15" flood-color="#000" flood-opacity="0.35" />
    </filter>
  </defs>

  <g filter="url(#iconDepth)">
    <path d="M 215 105 
             C 230 70, 282 70, 297 105 
             L 405 435 
             C 412 458, 395 465, 375 465 
             L 340 465 
             C 330 465, 323 458, 320 450 
             L 300 395 
             C 298 388, 292 382, 285 382 
             L 227 382 
             C 220 382, 214 388, 212 395 
             L 192 450 
             C 189 458, 182 465, 172 465 
             L 137 465 
             C 117 465, 100 458, 107 435 
             Z 
             
             M 238 345 
             C 233 345, 228 340, 231 330 
             L 242 300 
             C 245 288, 267 288, 270 300 
             L 281 330 
             C 284 340, 279 345, 274 345 
             Z" 
          fill="url(#apexGlow)" fill-rule="evenodd" />
  </g>
</svg>
